<?xml version="1.0" encoding="utf-8"?>
<!-- Svg Vector Icons : http://www.onlinewebfonts.com/icon -->
<!DOCTYPE svg PUBLIC "-//W3C//DTD SVG 1.1//EN" "http://www.w3.org/Graphics/SVG/1.1/DTD/svg11.dtd">
<svg version="1.1" xmlns="http://www.w3.org/2000/svg" xmlns:xlink="http://www.w3.org/1999/xlink" x="0px" y="0px" viewBox="0 0 256 256" enable-background="new 0 0 256 256" xml:space="preserve">
<metadata> Svg Vector Icons : http://www.onlinewebfonts.com/icon </metadata>
<g> <path fill="#000000" d="M21.3,233.2c-5.6,0-10.1-4.5-10.1-10.1V87.8c0-5.6,4.5-10.1,10.1-10.1h33.8c5.6,0,10.1,4.5,10.1,10.1v135.3 c0,5.6-4.5,10.1-10.1,10.1L21.3,233.2L21.3,233.2z M20.1,117.2h36.2v-13.6H20.1V117.2z"/> <path fill="#000000" d="M55.1,78.9c4.9,0,8.9,4,8.9,8.9v135.3c0,4.9-4,8.9-8.9,8.9H21.3c-4.9,0-8.9-4-8.9-8.9V87.8 c0-4.9,4-8.9,8.9-8.9L55.1,78.9 M18.9,118.3h38.6v-16H18.9V118.3 M55.1,76.5H21.3c-6.2,0-11.3,5.1-11.3,11.3v135.3 c0,6.2,5.1,11.3,11.3,11.3h33.8c6.2,0,11.3-5.1,11.3-11.3V87.8C66.4,81.6,61.3,76.5,55.1,76.5z M21.3,116v-11.3h33.8V116H21.3z"/> <path fill="#000000" d="M100.2,233.2c-5.6,0-10.1-4.5-10.1-10.1V31.4c0-5.6,4.5-10.1,10.1-10.1h33.9c5.6,0,10.1,4.5,10.1,10.1 v191.8c0,5.6-4.5,10.1-10.1,10.1H100.2z M99,60.8h36.2V47.1H99V60.8z"/> <path fill="#000000" d="M134.1,22.5c4.9,0,8.9,4,8.9,8.9v191.8c0,4.9-4,8.9-8.9,8.9h-33.9c-4.9,0-8.9-4-8.9-8.9V31.4 c0-4.9,4-8.9,8.9-8.9H134.1 M97.9,62h38.6V46H97.9V62 M134.1,20.1h-33.9c-6.2,0-11.3,5.1-11.3,11.3v191.8c0,6.2,5.1,11.3,11.3,11.3 h33.9c6.2,0,11.3-5.1,11.3-11.3V31.4C145.3,25.2,140.3,20.1,134.1,20.1z M100.2,59.6V48.3h33.8v11.3H100.2z"/> <path fill="#000000" d="M202.1,234.7c-4.5,0-8.5-3-9.7-7.4L147.7,65.2c-1.5-5.4,1.7-10.9,7-12.4l32.7-9c0.9-0.2,1.8-0.4,2.7-0.4 c4.5,0,8.5,3,9.7,7.4L244.5,213c0.7,2.6,0.4,5.3-1,7.6c-1.3,2.3-3.5,4-6.1,4.7l-32.7,9C203.9,234.6,203,234.7,202.1,234.7 L202.1,234.7z M160.5,78.1l3.6,13.1l34.9-9.6l-3.6-13.1L160.5,78.1z"/> <path fill="#000000" d="M190.1,44.7c4,0,7.5,2.7,8.6,6.5l44.7,162.1c1.3,4.7-1.5,9.6-6.2,10.9l-32.7,9c-0.8,0.2-1.6,0.3-2.3,0.3 c-4,0-7.5-2.7-8.6-6.5L148.9,64.9c-1.3-4.7,1.5-9.6,6.2-10.9l32.7-9C188.5,44.8,189.3,44.7,190.1,44.7 M163.3,92.7l2.3-0.6l32.6-9 l2.3-0.6l-0.6-2.3l-3-10.9l-0.6-2.3l-2.3,0.6l-32.6,9l-2.3,0.6l0.6,2.3l3,10.9L163.3,92.7 M190.1,42.3c-1,0-2,0.1-3,0.4l-32.7,9 c-6,1.6-9.5,7.9-7.9,13.8l44.7,162.1c1.4,5,5.9,8.3,10.9,8.3c1,0,2-0.1,3-0.4l32.7-9c6-1.6,9.5-7.9,7.9-13.8L200.9,50.6 C199.6,45.6,195,42.3,190.1,42.3z M164.9,89.8l-3-10.9l32.6-9l3,10.9L164.9,89.8z"/></g>
</svg>